<?xml version="1.0" standalone="no"?>
<!DOCTYPE svg PUBLIC "-//W3C//DTD SVG 20010904//EN"
 "http://www.w3.org/TR/2001/REC-SVG-20010904/DTD/svg10.dtd">
<svg version="1.0" xmlns="http://www.w3.org/2000/svg"
 width="64.000000pt" height="64.000000pt" viewBox="0 0 64.000000 64.000000"
 preserveAspectRatio="xMidYMid meet">

<g transform="translate(0.000000,64.000000) scale(0.100000,-0.100000)"
fill="#000000" stroke="none">
<path d="M0 631 c0 -8 224 -181 235 -181 3 0 5 43 5 95 l0 95 -120 0 c-66 0
-120 -4 -120 -9z"/>
<path d="M260 510 l0 -130 -130 0 -130 0 0 -65 0 -65 125 0 125 0 0 -125 0
-125 60 0 60 0 0 125 0 125 135 0 135 0 0 65 0 65 -135 0 -135 0 0 130 0 130
-55 0 -55 0 0 -130z"/>
<path d="M390 544 c0 -53 4 -94 8 -92 19 8 241 174 242 181 0 4 -56 7 -125 7
l-125 0 0 -96z"/>
<path d="M512 507 l-123 -92 40 -3 c35 -3 50 4 125 59 78 57 86 66 86 96 0 18
-1 33 -2 33 -2 0 -58 -42 -126 -93z"/>
<path d="M0 522 c0 -41 98 -112 154 -112 23 0 36 4 30 8 -23 21 -173 132 -178
132 -3 0 -6 -13 -6 -28z"/>
<path d="M596 441 l-40 -26 38 -3 c45 -4 49 -1 44 31 l-3 24 -39 -26z"/>
<path d="M0 435 c0 -22 4 -25 38 -25 35 1 36 1 17 16 -45 35 -55 36 -55 9z"/>
<path d="M0 200 c0 -11 3 -20 6 -20 3 0 17 9 31 20 l26 20 -32 0 c-24 0 -31
-4 -31 -20z"/>
<path d="M72 164 c-61 -47 -72 -59 -72 -85 l0 -30 33 22 c17 13 70 51 116 86
l84 63 -44 0 c-38 0 -54 -8 -117 -56z"/>
<path d="M450 216 c0 -2 43 -36 95 -75 l95 -71 0 33 c0 29 -7 39 -57 75 -43
32 -66 42 -95 42 -21 0 -38 -2 -38 -4z"/>
<path d="M595 195 c38 -31 45 -31 45 0 0 22 -4 25 -37 25 l-38 0 30 -25z"/>
<path d="M120 105 c-63 -46 -116 -89 -118 -95 -2 -6 39 -10 117 -10 l121 0 0
95 c0 52 -1 95 -3 95 -1 0 -54 -38 -117 -85z"/>
<path d="M390 96 l0 -96 127 0 c71 0 123 4 118 9 -6 4 -57 43 -115 86 -58 43
-111 82 -117 88 -10 7 -13 -11 -13 -87z"/>
</g>
</svg>
